<?xml version="1.0" encoding="utf-8"?>
<!-- Generator: Adobe Illustrator 19.2.0, SVG Export Plug-In . SVG Version: 6.00 Build 0)  -->
<svg version="1.1" id="Layer_1" xmlns="http://www.w3.org/2000/svg" xmlns:xlink="http://www.w3.org/1999/xlink" x="0px" y="0px"
	 viewBox="0 0 300 64" style="enable-background:new 0 0 300 64;" xml:space="preserve">
<style type="text/css">
	.st0{fill:#FFFFFF;}
</style>
<g>
	<path class="st0" d="M55.9,0L0,8.1L8.1,64L64,55.9L55.9,0z M32,50.9c-1.2,0-2.3,0.4-3.5,0.2l18.5-18h-3.8L25.5,50.2
		c-0.9-0.3-1.8-0.5-2.6-0.9L39.5,33h-3.8L20.6,47.6c-0.7-0.5-1.4-0.9-2-1.5l13.3-13h-3.8L16.9,43.8c-0.5-0.7-1-1.3-1.5-2.1l8.9-8.7
		h-3.8l-6.3,5.8c-0.3-1-0.6-1.7-0.8-2.7l3.3-3.1h-3.6c0-12,8.4-19.4,18.9-19.4s18.9,8.2,18.9,18.6L32,50.9z"/>
</g>
<g>
	<path class="st0" d="M82.2,26c2.3,0,4.1,1.7,4.1,4.1c0,2.3-1.7,4.1-4.1,4.1h-2.7V38H78V26H82.2z M82.2,27.5h-2.7v5h2.7
		c1.4,0,2.5-1,2.5-2.5C84.8,28.6,83.6,27.5,82.2,27.5z"/>
	<path class="st0" d="M96.1,35.9h-7.5l-1,2.1H86l5.6-12h1.6l5.6,12h-1.7L96.1,35.9z M89.4,34.4h6l-3-6.5L89.4,34.4z"/>
	<path class="st0" d="M101.9,26v10.5h6V38h-7.5V26H101.9z"/>
	<path class="st0" d="M111,38h-1.5V26h1.5l5.8,10l5.8-10h1.5v12h-1.5v-8.9l-5.1,8.9h-1.4l-5.1-8.9V38z"/>
	<path class="st0" d="M131.9,26c1.8,0,3.3,1.3,3.3,3.4c0,1.1-0.6,2.1-1.5,2.7c0.9,0.5,1.5,1.5,1.5,2.7c0,2-1.5,3.4-3.3,3.4h-5V26
		H131.9z M131.9,27.5h-3.5v3.7h3.6c1,0,1.7-0.8,1.7-1.9C133.7,28.2,132.9,27.5,131.9,27.5z M132,32.8h-3.6v3.7h3.5
		c1,0,1.8-0.7,1.8-1.8C133.7,33.6,133,32.8,132,32.8z"/>
	<path class="st0" d="M144.7,26v1.5h-5.8v3.7h5.8v1.5h-5.8v3.7h5.8V38h-7.4V26H144.7z"/>
	<path class="st0" d="M155.9,35.9h-7.5l-1,2.1h-1.7l5.6-12h1.6l5.6,12h-1.7L155.9,35.9z M149.2,34.4h6l-3-6.5L149.2,34.4z"/>
	<path class="st0" d="M164.7,26c1.7,0,3.1,0.7,4.2,1.7l-0.7,1.5c-0.9-0.9-2-1.6-3.6-1.6c-2.5,0-4.4,1.8-4.4,4.5
		c0,2.7,1.9,4.5,4.4,4.5c0.7,0,1.4-0.1,2.2-0.5l0.3,1.5c-1,0.3-1.7,0.5-2.5,0.5c-3.3,0-5.9-2.6-5.9-6C158.7,28.6,161.3,26,164.7,26z
		"/>
	<path class="st0" d="M180.4,26v12h-1.5v-5.2h-6.9V38h-1.5V26h1.5v5.2h6.9V26H180.4z"/>
	<path class="st0" d="M189.6,26v12h-1.5V26H189.6z"/>
	<path class="st0" d="M203,26v12h-1.5l-7.7-9.5V38h-1.5V26h1.5l7.7,9.6V26H203z"/>
	<path class="st0" d="M210.6,27.5V38H209V27.5h-4.7V26h11v1.5H210.6z"/>
	<path class="st0" d="M224.2,26v1.5h-5.8v3.7h5.8v1.5h-5.8v3.7h5.8V38h-7.4V26H224.2z"/>
	<path class="st0" d="M228,38h-1.5V26h4.6c2.3,0,4.1,1.7,4.1,4c0,1.6-0.8,2.9-2.1,3.6l3.6,4.4h-2l-3.2-4c-0.1,0-0.2,0-0.3,0H228V38z
		 M230.2,32.5l-0.7-0.9l1.2-1l1.3,1.7c0.9-0.3,1.6-1.2,1.6-2.3c0-1.5-1.1-2.5-2.5-2.5H228v5H230.2z"/>
	<path class="st0" d="M247,35.9h-7.5l-1,2.1h-1.7l5.6-12h1.6l5.6,12H248L247,35.9z M240.3,34.4h6l-3-6.5L240.3,34.4z"/>
	<path class="st0" d="M255.7,26c1.7,0,3.1,0.7,4.2,1.7l-0.7,1.5c-0.9-0.9-2-1.6-3.6-1.6c-2.5,0-4.4,1.8-4.4,4.5
		c0,2.7,1.9,4.5,4.4,4.5c0.7,0,1.4-0.1,2.2-0.5l0.3,1.5c-1,0.3-1.7,0.5-2.5,0.5c-3.3,0-5.9-2.6-5.9-6C249.8,28.6,252.4,26,255.7,26z
		"/>
	<path class="st0" d="M266.6,27.5V38H265V27.5h-4.7V26h11v1.5H266.6z"/>
	<path class="st0" d="M274.4,26v12h-1.5V26H274.4z"/>
	<path class="st0" d="M281.5,38l-5.7-12h1.7l4.6,9.7l4.6-9.7h1.7l-5.7,12H281.5z"/>
	<path class="st0" d="M297.3,26v1.5h-5.8v3.7h5.8v1.5h-5.8v3.7h5.8V38h-7.4V26H297.3z"/>
</g>
</svg>
